<svg xmlns="http://www.w3.org/2000/svg" viewBox="0 0 1200 1200" width="1200" height="1200" role="img">
<defs>
<linearGradient id="bg3" x1="0" y1="0" x2="1" y2="1">
<stop offset="0" stop-color="#0c1234"/><stop offset="1" stop-color="#06081e"/>
</linearGradient>
<radialGradient id="vig3" cx="0.5" cy="0.42" r="0.75">
<stop offset="0.55" stop-color="#000" stop-opacity="0"/><stop offset="1" stop-color="#000" stop-opacity="0.45"/>
</radialGradient>
<linearGradient id="gl3" x1="0" y1="1" x2="1" y2="0">
<stop offset="0" stop-color="#2ee06a" stop-opacity="0.0"/><stop offset="1" stop-color="#2ee06a" stop-opacity="0.9"/>
</linearGradient>
</defs>
<rect width="1200" height="1200" fill="url(#bg3)"/>
<g stroke="#7c8bff" stroke-opacity="0.06" stroke-width="1"><line x1="0" y1="0" x2="0" y2="1200"/><line x1="80" y1="0" x2="80" y2="1200"/><line x1="160" y1="0" x2="160" y2="1200"/><line x1="240" y1="0" x2="240" y2="1200"/><line x1="320" y1="0" x2="320" y2="1200"/><line x1="400" y1="0" x2="400" y2="1200"/><line x1="480" y1="0" x2="480" y2="1200"/><line x1="560" y1="0" x2="560" y2="1200"/><line x1="640" y1="0" x2="640" y2="1200"/><line x1="720" y1="0" x2="720" y2="1200"/><line x1="800" y1="0" x2="800" y2="1200"/><line x1="880" y1="0" x2="880" y2="1200"/><line x1="960" y1="0" x2="960" y2="1200"/><line x1="1040" y1="0" x2="1040" y2="1200"/><line x1="1120" y1="0" x2="1120" y2="1200"/><line x1="1200" y1="0" x2="1200" y2="1200"/><line x1="0" y1="0" x2="1200" y2="0"/><line x1="0" y1="80" x2="1200" y2="80"/><line x1="0" y1="160" x2="1200" y2="160"/><line x1="0" y1="240" x2="1200" y2="240"/><line x1="0" y1="320" x2="1200" y2="320"/><line x1="0" y1="400" x2="1200" y2="400"/><line x1="0" y1="480" x2="1200" y2="480"/><line x1="0" y1="560" x2="1200" y2="560"/><line x1="0" y1="640" x2="1200" y2="640"/><line x1="0" y1="720" x2="1200" y2="720"/><line x1="0" y1="800" x2="1200" y2="800"/><line x1="0" y1="880" x2="1200" y2="880"/><line x1="0" y1="960" x2="1200" y2="960"/><line x1="0" y1="1040" x2="1200" y2="1040"/><line x1="0" y1="1120" x2="1200" y2="1120"/><line x1="0" y1="1200" x2="1200" y2="1200"/></g><line x1="600" y1="600" x2="830" y2="600" stroke="#2ee06a" stroke-opacity="0.18" stroke-width="3"/><line x1="600" y1="600" x2="715" y2="799" stroke="#2ee06a" stroke-opacity="0.18" stroke-width="3"/><line x1="600" y1="600" x2="485" y2="799" stroke="#2ee06a" stroke-opacity="0.18" stroke-width="3"/><line x1="600" y1="600" x2="370" y2="600" stroke="#2ee06a" stroke-opacity="0.18" stroke-width="3"/><line x1="600" y1="600" x2="485" y2="401" stroke="#2ee06a" stroke-opacity="0.18" stroke-width="3"/><line x1="600" y1="600" x2="715" y2="401" stroke="#2ee06a" stroke-opacity="0.18" stroke-width="3"/><line x1="830" y1="600" x2="715" y2="799" stroke="#2ee06a" stroke-opacity="0.18" stroke-width="3"/><line x1="830" y1="600" x2="715" y2="401" stroke="#2ee06a" stroke-opacity="0.18" stroke-width="3"/><line x1="830" y1="600" x2="987" y2="764" stroke="#2ee06a" stroke-opacity="0.18" stroke-width="3"/><line x1="830" y1="600" x2="989" y2="442" stroke="#2ee06a" stroke-opacity="0.18" stroke-width="3"/><line x1="715" y1="799" x2="485" y2="799" stroke="#2ee06a" stroke-opacity="0.18" stroke-width="3"/><line x1="715" y1="799" x2="987" y2="764" stroke="#2ee06a" stroke-opacity="0.18" stroke-width="3"/><line x1="715" y1="799" x2="758" y2="989" stroke="#2ee06a" stroke-opacity="0.18" stroke-width="3"/><line x1="485" y1="799" x2="370" y2="600" stroke="#2ee06a" stroke-opacity="0.18" stroke-width="3"/><line x1="485" y1="799" x2="436" y2="987" stroke="#2ee06a" stroke-opacity="0.18" stroke-width="3"/><line x1="485" y1="799" x2="211" y2="758" stroke="#2ee06a" stroke-opacity="0.18" stroke-width="3"/><line x1="370" y1="600" x2="485" y2="401" stroke="#2ee06a" stroke-opacity="0.18" stroke-width="3"/><line x1="370" y1="600" x2="211" y2="758" stroke="#2ee06a" stroke-opacity="0.18" stroke-width="3"/><line x1="370" y1="600" x2="213" y2="436" stroke="#2ee06a" stroke-opacity="0.18" stroke-width="3"/><line x1="485" y1="401" x2="715" y2="401" stroke="#2ee06a" stroke-opacity="0.18" stroke-width="3"/><line x1="485" y1="401" x2="213" y2="436" stroke="#2ee06a" stroke-opacity="0.18" stroke-width="3"/><line x1="485" y1="401" x2="442" y2="211" stroke="#2ee06a" stroke-opacity="0.18" stroke-width="3"/><line x1="715" y1="401" x2="764" y2="213" stroke="#2ee06a" stroke-opacity="0.18" stroke-width="3"/><line x1="715" y1="401" x2="989" y2="442" stroke="#2ee06a" stroke-opacity="0.18" stroke-width="3"/><circle cx="600" cy="600" r="26" fill="#2ee06a" fill-opacity="1"/><circle cx="830" cy="600" r="16" fill="#7c8bff" fill-opacity="0.85"/><circle cx="715" cy="799" r="16" fill="#7c8bff" fill-opacity="0.85"/><circle cx="485" cy="799" r="16" fill="#7c8bff" fill-opacity="0.85"/><circle cx="370" cy="600" r="16" fill="#7c8bff" fill-opacity="0.85"/><circle cx="485" cy="401" r="16" fill="#7c8bff" fill-opacity="0.85"/><circle cx="715" cy="401" r="16" fill="#7c8bff" fill-opacity="0.85"/><circle cx="987" cy="764" r="11" fill="#7c8bff" fill-opacity="0.85"/><circle cx="758" cy="989" r="11" fill="#7c8bff" fill-opacity="0.85"/><circle cx="436" cy="987" r="11" fill="#7c8bff" fill-opacity="0.85"/><circle cx="211" cy="758" r="11" fill="#7c8bff" fill-opacity="0.85"/><circle cx="213" cy="436" r="11" fill="#7c8bff" fill-opacity="0.85"/><circle cx="442" cy="211" r="11" fill="#7c8bff" fill-opacity="0.85"/><circle cx="764" cy="213" r="11" fill="#7c8bff" fill-opacity="0.85"/><circle cx="989" cy="442" r="11" fill="#7c8bff" fill-opacity="0.85"/><circle cx="600" cy="600" r="60" fill="none" stroke="#2ee06a" stroke-opacity="0.3" stroke-width="4"/><rect width="1200" height="1200" fill="url(#vig3)"/><text x="1146" y="96" text-anchor="end" font-family="Space Grotesk, Arial, sans-serif" font-size="40" font-weight="600" fill="#7c8bff" fill-opacity="0.22" letter-spacing="3">04</text></svg>